<svg width="80" height="80" viewBox="0 0 80 80" fill="none" xmlns="http://www.w3.org/2000/svg">
<path d="M46.1587 44.3899L31.6839 60.9326C29.0278 63.9683 24.3056 63.9683 21.6495 60.9326L7.17462 44.3899C4.97532 41.8766 4.97532 38.1232 7.17462 35.6099L21.6495 19.0672C24.3056 16.0316 29.0278 16.0316 31.6839 19.0671L46.1587 35.6099C48.358 38.1232 48.358 41.8766 46.1587 44.3899Z" stroke="#51B848" stroke-width="5" stroke-linecap="round" stroke-linejoin="round"/>
<path d="M43.3334 63.3332L59.6147 44.3385C61.7544 41.8418 61.7544 38.1578 59.6147 35.6612L43.3334 16.6665" stroke="#51B848" stroke-width="5" stroke-linecap="round" stroke-linejoin="round"/>
<path d="M56.6666 63.3332L72.948 44.3385C75.0876 41.8418 75.0876 38.1578 72.948 35.6612L56.6666 16.6665" stroke="#51B848" stroke-width="5" stroke-linecap="round" stroke-linejoin="round"/>
</svg>
