<svg width="80" height="80" viewBox="0 0 80 80" fill="none" xmlns="http://www.w3.org/2000/svg">
<path d="M23.3334 60V56.6667C23.3334 47.462 30.7953 40 40 40C49.2047 40 56.6667 47.462 56.6667 56.6667V60" stroke="#51B848" stroke-width="5" stroke-linecap="round" stroke-linejoin="round"/>
<path d="M3.33337 59.9998V56.6665C3.33337 51.1435 7.81054 46.6665 13.3334 46.6665" stroke="#51B848" stroke-width="5" stroke-linecap="round" stroke-linejoin="round"/>
<path d="M76.6666 59.9998V56.6665C76.6666 51.1435 72.1896 46.6665 66.6666 46.6665" stroke="#51B848" stroke-width="5" stroke-linecap="round" stroke-linejoin="round"/>
<path d="M40 40C45.523 40 50 35.523 50 30C50 24.4772 45.523 20 40 20C34.477 20 30 24.4772 30 30C30 35.523 34.477 40 40 40Z" stroke="#51B848" stroke-width="5" stroke-linecap="round" stroke-linejoin="round"/>
<path d="M13.3333 46.6668C17.0152 46.6668 20 43.6822 20 40.0002C20 36.3182 17.0152 33.3335 13.3333 33.3335C9.65139 33.3335 6.66663 36.3182 6.66663 40.0002C6.66663 43.6822 9.65139 46.6668 13.3333 46.6668Z" stroke="#51B848" stroke-width="5" stroke-linecap="round" stroke-linejoin="round"/>
<path d="M66.6667 46.6668C70.3487 46.6668 73.3333 43.6822 73.3333 40.0002C73.3333 36.3182 70.3487 33.3335 66.6667 33.3335C62.9847 33.3335 60 36.3182 60 40.0002C60 43.6822 62.9847 46.6668 66.6667 46.6668Z" stroke="#51B848" stroke-width="5" stroke-linecap="round" stroke-linejoin="round"/>
</svg>
