<svg width="80" height="80" viewBox="0 0 80 80" fill="none" xmlns="http://www.w3.org/2000/svg">
<path d="M20 13.3335H30C30 13.3335 30 23.3335 40 23.3335C50 23.3335 50 13.3335 50 13.3335H60M60 36.6668V64.6668C60 65.7715 59.1047 66.6668 58 66.6668H22C20.8954 66.6668 20 65.7715 20 64.6668V36.6668" stroke="#51B848" stroke-width="5" stroke-linecap="round" stroke-linejoin="round"/>
<path d="M60 13.3335L74.8097 19.2574C75.8353 19.6676 76.334 20.8316 75.924 21.8571L70.503 35.4095C70.199 36.1688 69.4637 36.6668 68.646 36.6668H60" stroke="#51B848" stroke-width="5" stroke-linecap="round" stroke-linejoin="round"/>
<path d="M19.9997 13.3335L5.19 19.2574C4.16443 19.6676 3.6656 20.8316 4.07583 21.8571L9.49683 35.4095C9.80057 36.1688 10.536 36.6668 11.3538 36.6668H19.9997" stroke="#51B848" stroke-width="5" stroke-linecap="round" stroke-linejoin="round"/>
</svg>
