<svg width="80" height="80" viewBox="0 0 80 80" fill="none" xmlns="http://www.w3.org/2000/svg">
<path d="M65 73.3335C67.7613 73.3335 70 71.0948 70 68.3335C70 65.5722 67.7613 63.3335 65 63.3335C62.2387 63.3335 60 65.5722 60 68.3335C60 71.0948 62.2387 73.3335 65 73.3335Z" stroke="#51B848" stroke-width="5" stroke-linecap="round" stroke-linejoin="round"/>
<path d="M31.6666 73.3335C34.428 73.3335 36.6666 71.0948 36.6666 68.3335C36.6666 65.5722 34.428 63.3335 31.6666 63.3335C28.9052 63.3335 26.6666 65.5722 26.6666 68.3335C26.6666 71.0948 28.9052 73.3335 31.6666 73.3335Z" stroke="#51B848" stroke-width="5" stroke-linecap="round" stroke-linejoin="round"/>
<path d="M16.6666 13.3332H73.3333L66.6666 49.9998H23.3333L16.6666 13.3332ZM16.6666 13.3332C16.1111 11.1109 13.3333 6.6665 6.66663 6.6665" stroke="#51B848" stroke-width="5" stroke-linecap="round" stroke-linejoin="round"/>
<path d="M66.6667 50H23.3334H17.4359C11.4882 50 8.33337 52.604 8.33337 56.6667C8.33337 60.7293 11.4882 63.3333 17.4359 63.3333H65" stroke="#51B848" stroke-width="5" stroke-linecap="round" stroke-linejoin="round"/>
</svg>
